STARTFONT 2.3
FONT -FontForge-Satisfy-Book-R-Normal--9-90-72-72-P-38-ISO10646-1
SIZE 9 72 72  4
FONTBOUNDINGBOX 11 14 -2 -5
COMMENT "Generated by fontforge, http://fontforge.sourceforge.net"
COMMENT "Copyright (c) 2011 by Font Diner, Inc. All rights reserved."
STARTPROPERTIES 40
FOUNDRY "FontForge"
FAMILY_NAME "Satisfy"
WEIGHT_NAME "Book"
SLANT "R"
SETWIDTH_NAME "Normal"
ADD_STYLE_NAME ""
PIXEL_SIZE 9
POINT_SIZE 90
RESOLUTION_X 72
RESOLUTION_Y 72
SPACING "P"
AVERAGE_WIDTH 38
CHARSET_REGISTRY "ISO10646"
CHARSET_ENCODING "1"
FONTNAME_REGISTRY ""
CHARSET_COLLECTIONS "ISO10646-1"
BITS_PER_PIXEL 4
FONT_NAME "Satisfy-Regular"
FACE_NAME "Satisfy Regular"
COPYRIGHT "Copyright (c) 2011 by Font Diner, Inc. All rights reserved."
FONT_VERSION "1.001"
FONT_ASCENT 7
FONT_DESCENT 2
UNDERLINE_POSITION -1
UNDERLINE_THICKNESS 1
X_HEIGHT 3
CAP_HEIGHT 6
RAW_ASCENT 799
RAW_DESCENT 200
NORM_SPACE 3
RELATIVE_WEIGHT 40
RELATIVE_SETWIDTH 50
SUPERSCRIPT_X 0
SUPERSCRIPT_Y 4
SUPERSCRIPT_SIZE 5
SUBSCRIPT_X 0
SUBSCRIPT_Y 1
SUBSCRIPT_SIZE 5
AVG_LOWERCASE_WIDTH 36
AVG_UPPERCASE_WIDTH 50
ENDPROPERTIES
CHARS 227
STARTCHAR space
ENCODING 32
SWIDTH 280 0
DWIDTH 3 0
BBX 1 1 0 0
BITMAP
00
ENDCHAR
STARTCHAR exclam
ENCODING 33
SWIDTH 249 0
DWIDTH 2 0
BBX 4 8 -1 -1
BITMAP
0053
00B2
00C0
0390
0650
0710
1900
0200
ENDCHAR
STARTCHAR quotedbl
ENCODING 34
SWIDTH 249 0
DWIDTH 2 0
BBX 3 3 0 4
BITMAP
1560
5790
8650
ENDCHAR
STARTCHAR numbersign
ENCODING 35
SWIDTH 417 0
DWIDTH 4 0
BBX 5 5 -1 1
BITMAP
003350
03B990
039920
1BAC40
085500
ENDCHAR
STARTCHAR dollar
ENCODING 36
SWIDTH 292 0
DWIDTH 3 0
BBX 4 7 -1 0
BITMAP
0012
0288
0729
0470
01A0
4590
0930
ENDCHAR
STARTCHAR percent
ENCODING 37
SWIDTH 574 0
DWIDTH 5 0
BBX 6 8 0 -1
BITMAP
062051
638370
828900
378200
047970
197290
926850
100100
ENDCHAR
STARTCHAR ampersand
ENCODING 38
SWIDTH 460 0
DWIDTH 4 0
BBX 5 8 -1 -1
BITMAP
000650
005670
008B10
02D300
1B9500
676840
4B8E10
021510
ENDCHAR
STARTCHAR quotesingle
ENCODING 39
SWIDTH 113 0
DWIDTH 1 0
BBX 2 3 0 4
BITMAP
15
56
82
ENDCHAR
STARTCHAR parenleft
ENCODING 40
SWIDTH 234 0
DWIDTH 2 0
BBX 3 9 0 -1
BITMAP
0020
0370
0900
2700
7300
A000
A000
9000
6000
ENDCHAR
STARTCHAR parenright
ENCODING 41
SWIDTH 204 0
DWIDTH 2 0
BBX 3 9 -1 -1
BITMAP
0010
0080
00A0
00A0
0380
0640
0900
3700
8000
ENDCHAR
STARTCHAR asterisk
ENCODING 42
SWIDTH 327 0
DWIDTH 3 0
BBX 4 4 0 3
BITMAP
0240
5A94
2A91
0240
ENDCHAR
STARTCHAR plus
ENCODING 43
SWIDTH 350 0
DWIDTH 3 0
BBX 3 4 0 1
BITMAP
0620
8D90
2A00
0200
ENDCHAR
STARTCHAR comma
ENCODING 44
SWIDTH 200 0
DWIDTH 2 0
BBX 2 2 -1 -1
BITMAP
17
17
ENDCHAR
STARTCHAR hyphen
ENCODING 45
SWIDTH 353 0
DWIDTH 3 0
BBX 4 2 -1 2
BITMAP
0122
1877
ENDCHAR
STARTCHAR period
ENCODING 46
SWIDTH 213 0
DWIDTH 2 0
BBX 2 2 -1 -1
BITMAP
18
02
ENDCHAR
STARTCHAR slash
ENCODING 47
SWIDTH 262 0
DWIDTH 2 0
BBX 5 8 -1 -1
BITMAP
000330
000A00
006400
019000
072000
190000
920000
100000
ENDCHAR
STARTCHAR zero
ENCODING 48
SWIDTH 489 0
DWIDTH 4 0
BBX 4 8 0 -1
BITMAP
0074
0939
390A
840B
A21B
A166
6890
0200
ENDCHAR
STARTCHAR one
ENCODING 49
SWIDTH 272 0
DWIDTH 2 0
BBX 3 8 0 -1
BITMAP
0420
0D20
0B00
1A00
4600
8200
C100
1000
ENDCHAR
STARTCHAR two
ENCODING 50
SWIDTH 448 0
DWIDTH 4 0
BBX 5 8 -1 -1
BITMAP
002650
01A0C0
0242A0
000920
008500
084000
2DBC10
010100
ENDCHAR
STARTCHAR three
ENCODING 51
SWIDTH 462 0
DWIDTH 4 0
BBX 4 8 0 -1
BITMAP
0485
3A0B
252A
04B1
0375
4065
C7A0
1300
ENDCHAR
STARTCHAR four
ENCODING 52
SWIDTH 452 0
DWIDTH 4 0
BBX 4 8 0 -1
BITMAP
0026
01A9
0A56
A584
87D5
00C0
03B0
0010
ENDCHAR
STARTCHAR five
ENCODING 53
SWIDTH 444 0
DWIDTH 4 0
BBX 5 8 0 -1
BITMAP
037810
093710
270000
6BC400
224500
607100
DB6000
120000
ENDCHAR
STARTCHAR six
ENCODING 54
SWIDTH 477 0
DWIDTH 4 0
BBX 4 8 0 -1
BITMAP
0056
074B
1A31
7D68
A61A
9256
5890
0200
ENDCHAR
STARTCHAR seven
ENCODING 55
SWIDTH 406 0
DWIDTH 4 0
BBX 4 7 0 0
BITMAP
1787
252A
0083
0390
0A20
3A00
7600
ENDCHAR
STARTCHAR eight
ENCODING 56
SWIDTH 444 0
DWIDTH 4 0
BBX 4 8 0 -1
BITMAP
0165
0A08
0C57
0BA0
74C0
A0A1
A590
1200
ENDCHAR
STARTCHAR nine
ENCODING 57
SWIDTH 462 0
DWIDTH 4 0
BBX 4 8 0 -1
BITMAP
0273
0A18
560B
745B
3A88
2092
BB60
1100
ENDCHAR
STARTCHAR colon
ENCODING 58
SWIDTH 226 0
DWIDTH 2 0
BBX 3 4 -1 -1
BITMAP
0420
0310
1800
0200
ENDCHAR
STARTCHAR semicolon
ENCODING 59
SWIDTH 212 0
DWIDTH 2 0
BBX 3 4 -1 -1
BITMAP
0510
0400
1700
1700
ENDCHAR
STARTCHAR less
ENCODING 60
SWIDTH 271 0
DWIDTH 2 0
BBX 3 4 0 1
BITMAP
0540
7700
B100
5700
ENDCHAR
STARTCHAR equal
ENCODING 61
SWIDTH 374 0
DWIDTH 3 0
BBX 4 2 0 2
BITMAP
6992
9980
ENDCHAR
STARTCHAR greater
ENCODING 62
SWIDTH 250 0
DWIDTH 2 0
BBX 4 4 -1 1
BITMAP
0430
01B0
02B1
3910
ENDCHAR
STARTCHAR question
ENCODING 63
SWIDTH 413 0
DWIDTH 4 0
BBX 5 8 0 -1
BITMAP
068600
670A10
110B00
049300
580000
720000
810000
300000
ENDCHAR
STARTCHAR at
ENCODING 64
SWIDTH 648 0
DWIDTH 6 0
BBX 7 7 -1 -1
BITMAP
00376500
05747650
0A55A480
37909180
28A87730
06629500
00100000
ENDCHAR
STARTCHAR A
ENCODING 65
SWIDTH 552 0
DWIDTH 5 0
BBX 6 9 -1 -2
BITMAP
000173
001947
007454
00B092
0480B0
4CAAE2
0D02A0
5A0490
6203B0
ENDCHAR
STARTCHAR B
ENCODING 66
SWIDTH 607 0
DWIDTH 5 0
BBX 6 9 0 -2
BITMAP
039740
2C80C2
0830C2
0B0680
1DCB10
660480
A30690
D03C20
877100
ENDCHAR
STARTCHAR C
ENCODING 67
SWIDTH 548 0
DWIDTH 5 0
BBX 5 9 0 -2
BITMAP
004740
0680C0
1C02D0
770340
C30000
E10000
E00200
A42700
187000
ENDCHAR
STARTCHAR D
ENCODING 68
SWIDTH 632 0
DWIDTH 6 0
BBX 6 9 0 -2
BITMAP
049600
0834A0
0940A3
0C2095
0C00A4
3901D0
750760
C16900
684000
ENDCHAR
STARTCHAR E
ENCODING 69
SWIDTH 523 0
DWIDTH 5 0
BBX 6 9 -1 -2
BITMAP
000574
00A40B
04B068
03C010
01BA10
0B2000
3B0040
2D2370
049600
ENDCHAR
STARTCHAR F
ENCODING 70
SWIDTH 585 0
DWIDTH 5 0
BBX 6 9 0 -2
BITMAP
047870
690092
4A10A0
001740
1A8D60
006600
00C100
02C000
026000
ENDCHAR
STARTCHAR G
ENCODING 71
SWIDTH 612 0
DWIDTH 6 0
BBX 5 9 0 -2
BITMAP
002750
03A0B0
0C21D0
5B0350
961340
C358A0
C10730
932900
187000
ENDCHAR
STARTCHAR H
ENCODING 72
SWIDTH 649 0
DWIDTH 6 0
BBX 6 9 0 -2
BITMAP
014005
076049
0A2084
0C00B0
4DA9E4
665860
930C30
D10C00
800600
ENDCHAR
STARTCHAR I
ENCODING 73
SWIDTH 537 0
DWIDTH 5 0
BBX 6 9 -1 -2
BITMAP
000172
000B66
002A74
0038B2
0006C0
069AB4
780830
771900
067100
ENDCHAR
STARTCHAR J
ENCODING 74
SWIDTH 500 0
DWIDTH 5 0
BBX 7 9 -1 -2
BITMAP
00078820
0003A400
0000C000
0002B000
03368000
2C3A4000
830D0000
A0660000
37600000
ENDCHAR
STARTCHAR K
ENCODING 75
SWIDTH 497 0
DWIDTH 4 0
BBX 6 10 -1 -3
BITMAP
003406
00B23A
01B094
047580
08A800
0C4A50
0C0840
3A0C00
450C10
000261
ENDCHAR
STARTCHAR L
ENCODING 76
SWIDTH 492 0
DWIDTH 4 0
BBX 6 9 -1 -2
BITMAP
000066
00059B
000AA4
059D40
002A00
006500
00A100
9DB220
433A90
ENDCHAR
STARTCHAR M
ENCODING 77
SWIDTH 733 0
DWIDTH 7 0
BBX 8 9 -1 -2
BITMAP
00052044
001E41D6
005B47A3
00A83AA0
01C875B0
6499B390
96689660
AB212860
57000470
ENDCHAR
STARTCHAR N
ENCODING 78
SWIDTH 541 0
DWIDTH 5 0
BBX 7 9 -1 -2
BITMAP
00510650
00E32A70
03D47B40
0684B300
0A45A000
0B36B000
2A2A8000
5A0E5000
26051000
ENDCHAR
STARTCHAR O
ENCODING 79
SWIDTH 567 0
DWIDTH 5 0
BBX 5 9 0 -2
BITMAP
008810
087470
2B0290
750290
A20480
D00750
C00C10
B16600
286000
ENDCHAR
STARTCHAR P
ENCODING 80
SWIDTH 552 0
DWIDTH 5 0
BBX 7 9 -1 -2
BITMAP
00367400
05C40D00
00910C10
00A03A00
0294A100
06A50000
0A300000
1D000000
25000000
ENDCHAR
STARTCHAR Q
ENCODING 81
SWIDTH 583 0
DWIDTH 5 0
BBX 5 9 0 -2
BITMAP
006820
0961A0
3B00B0
8500C0
B202A0
930850
172C00
79E700
492540
ENDCHAR
STARTCHAR R
ENCODING 82
SWIDTH 560 0
DWIDTH 5 0
BBX 7 10 -1 -3
BITMAP
00378400
05B50C10
00820B20
00A02B00
04D5A200
06BB1000
08564000
0D156000
1603C200
00002000
ENDCHAR
STARTCHAR S
ENCODING 83
SWIDTH 474 0
DWIDTH 4 0
BBX 6 9 -1 -2
BITMAP
002881
01B156
048084
01D100
005C00
000B20
260820
5A1900
099200
ENDCHAR
STARTCHAR T
ENCODING 84
SWIDTH 423 0
DWIDTH 4 0
BBX 5 9 0 -2
BITMAP
378750
54D210
01A000
057000
093000
0C0000
1C0000
490000
440000
ENDCHAR
STARTCHAR U
ENCODING 85
SWIDTH 574 0
DWIDTH 5 0
BBX 6 9 0 -2
BITMAP
023043
0B40B3
1D01D0
490490
840750
B10B10
C01E00
D19C00
493600
ENDCHAR
STARTCHAR V
ENCODING 86
SWIDTH 503 0
DWIDTH 5 0
BBX 5 9 0 -2
BITMAP
060060
2B02B0
560850
840C00
923900
828400
73A000
496000
080000
ENDCHAR
STARTCHAR W
ENCODING 87
SWIDTH 817 0
DWIDTH 7 0
BBX 8 9 0 -2
BITMAP
03400072
0C1480B3
2A0950B1
650B20C0
920C01A0
A03C0560
A09A0A10
95895700
28048000
ENDCHAR
STARTCHAR X
ENCODING 88
SWIDTH 579 0
DWIDTH 5 0
BBX 7 9 -1 -2
BITMAP
02910170
09370B50
07AA6700
001BA000
000C2000
006E0000
02B82000
0B357220
25008500
ENDCHAR
STARTCHAR Y
ENCODING 89
SWIDTH 532 0
DWIDTH 5 0
BBX 6 9 0 -2
BITMAP
052071
0D01D0
490480
750850
A21E10
979A00
143800
73A200
793000
ENDCHAR
STARTCHAR Z
ENCODING 90
SWIDTH 455 0
DWIDTH 4 0
BBX 6 9 -1 -2
BITMAP
017883
025385
0001C1
000B40
008600
059000
1B0000
887720
566710
ENDCHAR
STARTCHAR bracketleft
ENCODING 91
SWIDTH 202 0
DWIDTH 2 0
BBX 4 9 -1 -1
BITMAP
0035
00A2
0190
0450
0810
0900
0900
3600
5900
ENDCHAR
STARTCHAR backslash
ENCODING 92
SWIDTH 273 0
DWIDTH 2 0
BBX 2 8 0 -1
BITMAP
51
82
64
46
18
0A
0B
01
ENDCHAR
STARTCHAR bracketright
ENCODING 93
SWIDTH 216 0
DWIDTH 2 0
BBX 4 9 -1 -1
BITMAP
0071
0092
0090
0090
0270
0630
0900
0900
9600
ENDCHAR
STARTCHAR asciicircum
ENCODING 94
SWIDTH 287 0
DWIDTH 3 0
BBX 4 4 -1 3
BITMAP
0034
0199
082A
1608
ENDCHAR
STARTCHAR underscore
ENCODING 95
SWIDTH 439 0
DWIDTH 4 0
BBX 5 2 -1 -1
BITMAP
8AA940
100100
ENDCHAR
STARTCHAR grave
ENCODING 96
SWIDTH 567 0
DWIDTH 5 0
BBX 2 2 2 5
BITMAP
10
57
ENDCHAR
STARTCHAR a
ENCODING 97
SWIDTH 435 0
DWIDTH 4 0
BBX 6 5 -1 -1
BITMAP
007500
083A01
0B1924
1D7A60
010100
ENDCHAR
STARTCHAR b
ENCODING 98
SWIDTH 415 0
DWIDTH 4 0
BBX 5 8 0 -1
BITMAP
021000
0D1000
3D0000
882000
B3D630
909000
982000
100000
ENDCHAR
STARTCHAR c
ENCODING 99
SWIDTH 363 0
DWIDTH 3 0
BBX 5 5 -1 -1
BITMAP
018400
0A5510
1A0160
0B5700
012000
ENDCHAR
STARTCHAR d
ENCODING 100
SWIDTH 483 0
DWIDTH 4 0
BBX 5 8 0 -1
BITMAP
000200
000B30
001F10
067B00
81C400
909060
C7B710
001000
ENDCHAR
STARTCHAR e
ENCODING 101
SWIDTH 372 0
DWIDTH 3 0
BBX 4 5 0 -1
BITMAP
0750
8650
D506
B671
1200
ENDCHAR
STARTCHAR f
ENCODING 102
SWIDTH 325 0
DWIDTH 3 0
BBX 5 12 -1 -5
BITMAP
003100
00B200
00B000
019000
059640
0D2000
0C6000
379100
738200
A1A000
CC3000
210000
ENDCHAR
STARTCHAR g
ENCODING 103
SWIDTH 459 0
DWIDTH 4 0
BBX 6 9 -1 -5
BITMAP
017420
091C30
0A0A25
0B7D60
019800
098400
189100
0AA000
032000
ENDCHAR
STARTCHAR h
ENCODING 104
SWIDTH 465 0
DWIDTH 4 0
BBX 5 8 0 -1
BITMAP
020000
0D0000
1B0000
487100
88B200
A0A150
A0C600
101000
ENDCHAR
STARTCHAR i
ENCODING 105
SWIDTH 274 0
DWIDTH 2 0
BBX 3 6 0 0
BITMAP
0700
0200
2300
9300
A070
9810
ENDCHAR
STARTCHAR j
ENCODING 106
SWIDTH 267 0
DWIDTH 2 0
BBX 5 10 -2 -4
BITMAP
000810
000100
002300
007400
00B170
00C710
079000
5B5000
991000
880000
ENDCHAR
STARTCHAR k
ENCODING 107
SWIDTH 440 0
DWIDTH 4 0
BBX 6 8 -1 -1
BITMAP
003000
00D000
01A000
056700
087A00
089724
183A60
010200
ENDCHAR
STARTCHAR l
ENCODING 108
SWIDTH 218 0
DWIDTH 2 0
BBX 3 8 -1 -1
BITMAP
0020
00D0
02B0
0570
0930
0B00
1A00
0100
ENDCHAR
STARTCHAR m
ENCODING 109
SWIDTH 717 0
DWIDTH 6 0
BBX 7 5 0 -1
BITMAP
12515100
7AAAB400
B292B160
C0A0C720
10102100
ENDCHAR
STARTCHAR n
ENCODING 110
SWIDTH 461 0
DWIDTH 4 0
BBX 6 5 -1 -1
BITMAP
023600
089B11
0A0B16
1A1C70
000200
ENDCHAR
STARTCHAR o
ENCODING 111
SWIDTH 393 0
DWIDTH 4 0
BBX 5 5 0 -1
BITMAP
272000
B39420
B9B200
A93000
110000
ENDCHAR
STARTCHAR p
ENCODING 112
SWIDTH 451 0
DWIDTH 4 0
BBX 6 8 -1 -4
BITMAP
033600
089920
0A0A25
0EDB60
373100
740000
B10000
900000
ENDCHAR
STARTCHAR q
ENCODING 113
SWIDTH 462 0
DWIDTH 4 0
BBX 5 8 0 -4
BITMAP
054300
82B400
B0A110
B5B520
24C300
065000
0C2000
0B1000
ENDCHAR
STARTCHAR r
ENCODING 114
SWIDTH 406 0
DWIDTH 4 0
BBX 6 6 -1 -1
BITMAP
001000
05A000
078901
176552
61A640
002200
ENDCHAR
STARTCHAR s
ENCODING 115
SWIDTH 351 0
DWIDTH 3 0
BBX 3 5 0 -1
BITMAP
1C00
5B00
3650
A740
1200
ENDCHAR
STARTCHAR t
ENCODING 116
SWIDTH 301 0
DWIDTH 3 0
BBX 5 8 -1 -1
BITMAP
001000
00B200
49E850
049000
074010
080520
087400
011000
ENDCHAR
STARTCHAR u
ENCODING 117
SWIDTH 468 0
DWIDTH 4 0
BBX 5 5 0 -1
BITMAP
223100
A1B210
B0B060
C8B700
110000
ENDCHAR
STARTCHAR v
ENCODING 118
SWIDTH 427 0
DWIDTH 4 0
BBX 5 5 0 -1
BITMAP
403200
B0C230
A29500
A80000
100000
ENDCHAR
STARTCHAR w
ENCODING 119
SWIDTH 646 0
DWIDTH 6 0
BBX 7 5 0 -1
BITMAP
32514000
B1C0D130
A082B500
A7891000
11110000
ENDCHAR
STARTCHAR x
ENCODING 120
SWIDTH 399 0
DWIDTH 4 0
BBX 5 5 -1 -1
BITMAP
061510
05A800
04C020
299840
101100
ENDCHAR
STARTCHAR y
ENCODING 121
SWIDTH 406 0
DWIDTH 4 0
BBX 5 8 -1 -4
BITMAP
041410
0B1A20
1A1B00
1CA800
025500
009200
00B000
008000
ENDCHAR
STARTCHAR z
ENCODING 122
SWIDTH 448 0
DWIDTH 4 0
BBX 6 8 -1 -4
BITMAP
007830
004720
003903
009A70
017C00
092900
379300
2B7000
ENDCHAR
STARTCHAR braceleft
ENCODING 123
SWIDTH 243 0
DWIDTH 2 0
BBX 4 9 -1 -1
BITMAP
0015
0096
0090
0090
0830
0630
0900
2900
1C10
ENDCHAR
STARTCHAR bar
ENCODING 124
SWIDTH 253 0
DWIDTH 2 0
BBX 3 8 0 -1
BITMAP
0420
0A00
0900
3600
6300
A100
B000
1000
ENDCHAR
STARTCHAR braceright
ENCODING 125
SWIDTH 243 0
DWIDTH 2 0
BBX 4 9 -1 -1
BITMAP
0040
00C3
0081
0180
0180
0550
0900
0A00
9700
ENDCHAR
STARTCHAR asciitilde
ENCODING 126
SWIDTH 329 0
DWIDTH 3 0
BBX 5 2 -1 2
BITMAP
198710
112300
ENDCHAR
STARTCHAR uni00A0
ENCODING 160
SWIDTH 280 0
DWIDTH 3 0
BBX 1 1 0 0
BITMAP
00
ENDCHAR
STARTCHAR exclamdown
ENCODING 161
SWIDTH 249 0
DWIDTH 2 0
BBX 4 8 -1 -1
BITMAP
0053
0040
00A0
0390
0750
0B20
1D00
0200
ENDCHAR
STARTCHAR cent
ENCODING 162
SWIDTH 322 0
DWIDTH 3 0
BBX 3 7 0 0
BITMAP
0030
0680
64C0
A030
9000
9520
6300
ENDCHAR
STARTCHAR sterling
ENCODING 163
SWIDTH 318 0
DWIDTH 3 0
BBX 5 7 -1 0
BITMAP
000100
008820
036910
095000
0A4000
283100
365200
ENDCHAR
STARTCHAR currency
ENCODING 164
SWIDTH 347 0
DWIDTH 3 0
BBX 4 4 0 1
BITMAP
5561
3570
9870
1020
ENDCHAR
STARTCHAR yen
ENCODING 165
SWIDTH 326 0
DWIDTH 3 0
BBX 4 6 0 0
BITMAP
5335
3580
0C20
5C20
8800
3100
ENDCHAR
STARTCHAR brokenbar
ENCODING 166
SWIDTH 253 0
DWIDTH 2 0
BBX 3 8 0 -1
BITMAP
0420
0A00
0A00
0200
5300
A100
B000
1000
ENDCHAR
STARTCHAR section
ENCODING 167
SWIDTH 297 0
DWIDTH 3 0
BBX 5 8 -1 -1
BITMAP
005500
045710
019000
094700
097300
039000
369000
021000
ENDCHAR
STARTCHAR dieresis
ENCODING 168
SWIDTH 567 0
DWIDTH 5 0
BBX 3 1 2 5
BITMAP
7620
ENDCHAR
STARTCHAR copyright
ENCODING 169
SWIDTH 456 0
DWIDTH 4 0
BBX 5 5 0 2
BITMAP
035400
467730
872360
875620
476500
ENDCHAR
STARTCHAR ordfeminine
ENCODING 170
SWIDTH 373 0
DWIDTH 3 0
BBX 5 6 -1 -1
BITMAP
003100
067600
094510
1C8830
288400
221000
ENDCHAR
STARTCHAR guillemotleft
ENCODING 171
SWIDTH 346 0
DWIDTH 3 0
BBX 4 5 -1 -1
BITMAP
0034
0875
38B0
0863
0001
ENDCHAR
STARTCHAR logicalnot
ENCODING 172
SWIDTH 512 0
DWIDTH 5 0
BBX 5 3 0 1
BITMAP
799830
200540
000400
ENDCHAR
STARTCHAR sfthyphen
ENCODING 173
SWIDTH 353 0
DWIDTH 3 0
BBX 4 2 -1 2
BITMAP
0122
1877
ENDCHAR
STARTCHAR registered
ENCODING 174
SWIDTH 456 0
DWIDTH 4 0
BBX 5 5 0 2
BITMAP
035400
487730
849360
877720
466500
ENDCHAR
STARTCHAR macron
ENCODING 175
SWIDTH 567 0
DWIDTH 5 0
BBX 3 1 2 5
BITMAP
8910
ENDCHAR
STARTCHAR degree
ENCODING 176
SWIDTH 144 0
DWIDTH 1 0
BBX 2 1 0 5
BITMAP
58
ENDCHAR
STARTCHAR twosuperior
ENCODING 178
SWIDTH 268 0
DWIDTH 2 0
BBX 3 5 0 2
BITMAP
0660
3490
0720
7600
6620
ENDCHAR
STARTCHAR threesuperior
ENCODING 179
SWIDTH 262 0
DWIDTH 2 0
BBX 3 5 0 2
BITMAP
1750
4580
0A30
5450
5600
ENDCHAR
STARTCHAR acute
ENCODING 180
SWIDTH 567 0
DWIDTH 5 0
BBX 2 1 2 5
BITMAP
58
ENDCHAR
STARTCHAR mu
ENCODING 181
SWIDTH 453 0
DWIDTH 4 0
BBX 5 6 -1 -2
BITMAP
010200
0B1A00
384630
7B8A50
A10000
700000
ENDCHAR
STARTCHAR paragraph
ENCODING 182
SWIDTH 411 0
DWIDTH 4 0
BBX 5 8 0 -1
BITMAP
026620
5FDB10
AF9800
4D7600
067200
097000
098000
010000
ENDCHAR
STARTCHAR periodcentered
ENCODING 183
SWIDTH 168 0
DWIDTH 2 0
BBX 2 2 0 2
BITMAP
51
50
ENDCHAR
STARTCHAR cedilla
ENCODING 184
SWIDTH 567 0
DWIDTH 5 0
BBX 2 3 2 -2
BITMAP
53
3A
20
ENDCHAR
STARTCHAR onesuperior
ENCODING 185
SWIDTH 150 0
DWIDTH 1 0
BBX 2 5 0 2
BITMAP
15
27
44
80
50
ENDCHAR
STARTCHAR ordmasculine
ENCODING 186
SWIDTH 319 0
DWIDTH 3 0
BBX 5 6 -1 -1
BITMAP
002000
097420
1B9800
0A9000
388000
221000
ENDCHAR
STARTCHAR guillemotright
ENCODING 187
SWIDTH 346 0
DWIDTH 3 0
BBX 4 5 -1 -1
BITMAP
0330
0864
0768
3680
1100
ENDCHAR
STARTCHAR onequarter
ENCODING 188
SWIDTH 579 0
DWIDTH 5 0
BBX 6 8 -1 -1
BITMAP
016005
018073
044370
08194A
057587
0475A8
1B0073
010010
ENDCHAR
STARTCHAR onehalf
ENCODING 189
SWIDTH 603 0
DWIDTH 5 0
BBX 6 8 0 -1
BITMAP
160050
180640
352700
729792
573391
370640
A04C60
100010
ENDCHAR
STARTCHAR threequarters
ENCODING 190
SWIDTH 669 0
DWIDTH 6 0
BBX 6 8 0 -1
BITMAP
175015
458091
0A3540
546868
569585
0646B5
2900A0
100010
ENDCHAR
STARTCHAR questiondown
ENCODING 191
SWIDTH 413 0
DWIDTH 4 0
BBX 5 8 -1 -1
BITMAP
000370
000230
000930
007A00
0A3000
560610
495B10
023000
ENDCHAR
STARTCHAR Agrave
ENCODING 192
SWIDTH 552 0
DWIDTH 5 0
BBX 6 11 -1 -2
BITMAP
000010
000084
000173
001947
007454
00B092
0480B0
4CAAE2
0D02A0
5A0490
6203B0
ENDCHAR
STARTCHAR Aacute
ENCODING 193
SWIDTH 552 0
DWIDTH 5 0
BBX 6 10 -1 -2
BITMAP
000085
000183
001947
007454
00B092
0480B0
4CAAE2
0D02A0
5A0490
6203B0
ENDCHAR
STARTCHAR Acircumflex
ENCODING 194
SWIDTH 552 0
DWIDTH 5 0
BBX 6 11 -1 -2
BITMAP
000011
000178
000173
001947
007454
00B092
0480B0
4CAAE2
0D02A0
5A0490
6203B0
ENDCHAR
STARTCHAR Atilde
ENCODING 195
SWIDTH 552 0
DWIDTH 5 0
BBX 7 10 -1 -2
BITMAP
00038820
00017300
00194700
00745400
00B09200
0480B000
4CAAE200
0D02A000
5A049000
6203B000
ENDCHAR
STARTCHAR Adieresis
ENCODING 196
SWIDTH 552 0
DWIDTH 5 0
BBX 7 10 -1 -2
BITMAP
00007620
00017300
00194700
00745400
00B09200
0480B000
4CAAE200
0D02A000
5A049000
6203B000
ENDCHAR
STARTCHAR Aring
ENCODING 197
SWIDTH 552 0
DWIDTH 5 0
BBX 6 10 -1 -2
BITMAP
000043
0001B5
000946
007454
00B092
0480B0
4CAAE2
0D02A0
5A0490
6203B0
ENDCHAR
STARTCHAR AE
ENCODING 198
SWIDTH 869 0
DWIDTH 8 0
BBX 9 9 -1 -2
BITMAP
0001735740
00194E60B0
00745D04A0
00B09D0000
0480BAA200
4CAAF30000
0D02C00310
5A04E32700
6203D97000
ENDCHAR
STARTCHAR Ccedilla
ENCODING 199
SWIDTH 548 0
DWIDTH 5 0
BBX 5 11 0 -4
BITMAP
004740
0680C0
1C02D0
770340
C30000
E10000
E00200
A42700
1B7000
067000
051000
ENDCHAR
STARTCHAR Egrave
ENCODING 200
SWIDTH 523 0
DWIDTH 5 0
BBX 6 11 -1 -2
BITMAP
000010
000192
000574
00A40B
04B068
03C010
01BA10
0B2000
3B0040
2D2370
049600
ENDCHAR
STARTCHAR Eacute
ENCODING 201
SWIDTH 523 0
DWIDTH 5 0
BBX 6 10 -1 -2
BITMAP
000084
000574
00A40B
04B068
03C010
01BA10
0B2000
3B0040
2D2370
049600
ENDCHAR
STARTCHAR Ecircumflex
ENCODING 202
SWIDTH 523 0
DWIDTH 5 0
BBX 6 11 -1 -2
BITMAP
000011
000278
000574
00A40B
04B068
03C010
01BA10
0B2000
3B0040
2D2370
049600
ENDCHAR
STARTCHAR Edieresis
ENCODING 203
SWIDTH 523 0
DWIDTH 5 0
BBX 6 10 -1 -2
BITMAP
000358
000574
00A40B
04B068
03C010
01BA10
0B2000
3B0040
2D2370
049600
ENDCHAR
STARTCHAR Igrave
ENCODING 204
SWIDTH 537 0
DWIDTH 5 0
BBX 6 11 -1 -2
BITMAP
000010
000094
000172
000B66
002A74
0038B2
0006C0
069AB4
780830
771900
067100
ENDCHAR
STARTCHAR Iacute
ENCODING 205
SWIDTH 537 0
DWIDTH 5 0
BBX 6 10 -1 -2
BITMAP
000067
000172
000B66
002A74
0038B2
0006C0
069AB4
780830
771900
067100
ENDCHAR
STARTCHAR Icircumflex
ENCODING 206
SWIDTH 537 0
DWIDTH 5 0
BBX 7 11 -1 -2
BITMAP
00000200
00006910
00017200
000B6600
002A7400
0038B200
0006C000
069AB400
78083000
77190000
06710000
ENDCHAR
STARTCHAR Idieresis
ENCODING 207
SWIDTH 537 0
DWIDTH 5 0
BBX 7 10 -1 -2
BITMAP
00007620
00017200
000B6600
002A7400
0038B200
0006C000
069AB400
78083000
77190000
06710000
ENDCHAR
STARTCHAR Eth
ENCODING 208
SWIDTH 632 0
DWIDTH 6 0
BBX 7 9 -1 -2
BITMAP
00496000
00834A00
00940A30
00C10950
1AE80A40
03901D00
07507600
0C169000
06840000
ENDCHAR
STARTCHAR Ntilde
ENCODING 209
SWIDTH 541 0
DWIDTH 5 0
BBX 7 10 -1 -2
BITMAP
00088600
00510650
00E32A70
03D47B40
0684B300
0A45A000
0B36B000
2A2A8000
5A0E5000
26051000
ENDCHAR
STARTCHAR Ograve
ENCODING 210
SWIDTH 567 0
DWIDTH 5 0
BBX 5 11 0 -2
BITMAP
000100
001920
008810
087470
2B0290
750290
A20480
D00750
C00C10
B16600
286000
ENDCHAR
STARTCHAR Oacute
ENCODING 211
SWIDTH 567 0
DWIDTH 5 0
BBX 5 10 0 -2
BITMAP
001920
008810
087470
2B0290
750290
A20480
D00750
C00C10
B16600
286000
ENDCHAR
STARTCHAR Ocircumflex
ENCODING 212
SWIDTH 567 0
DWIDTH 5 0
BBX 5 11 0 -2
BITMAP
000100
004850
008810
087470
2B0290
750290
A20480
D00750
C00C10
B16600
286000
ENDCHAR
STARTCHAR Otilde
ENCODING 213
SWIDTH 567 0
DWIDTH 5 0
BBX 5 10 0 -2
BITMAP
008860
008810
087470
2B0290
750290
A20480
D00750
C00C10
B16600
286000
ENDCHAR
STARTCHAR Odieresis
ENCODING 214
SWIDTH 567 0
DWIDTH 5 0
BBX 5 10 0 -2
BITMAP
005460
008810
087470
2B0290
750290
A20480
D00750
C00C10
B16600
286000
ENDCHAR
STARTCHAR multiply
ENCODING 215
SWIDTH 281 0
DWIDTH 3 0
BBX 4 4 -1 1
BITMAP
0516
04C2
0790
1340
ENDCHAR
STARTCHAR Oslash
ENCODING 216
SWIDTH 597 0
DWIDTH 5 0
BBX 7 9 -1 -2
BITMAP
00079920
00685A00
01C0BB00
05757B00
094B3A00
0B856700
0CB0B200
0A558000
1B870000
ENDCHAR
STARTCHAR Ugrave
ENCODING 217
SWIDTH 574 0
DWIDTH 5 0
BBX 6 11 0 -2
BITMAP
000100
001920
023043
0B40B3
1D01D0
490490
840750
B10B10
C01E00
D19C00
493600
ENDCHAR
STARTCHAR Uacute
ENCODING 218
SWIDTH 574 0
DWIDTH 5 0
BBX 6 10 0 -2
BITMAP
000670
023043
0B40B3
1D01D0
490490
840750
B10B10
C01E00
D19C00
493600
ENDCHAR
STARTCHAR Ucircumflex
ENCODING 219
SWIDTH 574 0
DWIDTH 5 0
BBX 6 11 0 -2
BITMAP
000110
002780
023043
0B40B3
1D01D0
490490
840750
B10B10
C01E00
D19C00
493600
ENDCHAR
STARTCHAR Udieresis
ENCODING 220
SWIDTH 574 0
DWIDTH 5 0
BBX 6 10 0 -2
BITMAP
003470
023043
0B40B3
1D01D0
490490
840750
B10B10
C01E00
D19C00
493600
ENDCHAR
STARTCHAR Yacute
ENCODING 221
SWIDTH 532 0
DWIDTH 5 0
BBX 6 10 0 -2
BITMAP
001930
052071
0D01D0
490480
750850
A21E10
979A00
143800
73A200
793000
ENDCHAR
STARTCHAR Thorn
ENCODING 222
SWIDTH 569 0
DWIDTH 5 0
BBX 6 9 -1 -2
BITMAP
003300
00B200
03D7A5
08901C
06502A
0A20A3
0D6930
2C1000
350000
ENDCHAR
STARTCHAR germandbls
ENCODING 223
SWIDTH 495 0
DWIDTH 4 0
BBX 6 11 -2 -5
BITMAP
000596
001B38
005691
009182
04A02B
02B5A8
063930
090A00
093800
1DB100
020000
ENDCHAR
STARTCHAR agrave
ENCODING 224
SWIDTH 435 0
DWIDTH 4 0
BBX 6 7 -1 -1
BITMAP
001000
007600
007500
083A01
0B1924
1D7A60
010100
ENDCHAR
STARTCHAR aacute
ENCODING 225
SWIDTH 435 0
DWIDTH 4 0
BBX 6 6 -1 -1
BITMAP
005800
007500
083A01
0B1924
1D7A60
010100
ENDCHAR
STARTCHAR acircumflex
ENCODING 226
SWIDTH 435 0
DWIDTH 4 0
BBX 6 7 -1 -1
BITMAP
000200
007910
007500
083A01
0B1924
1D7A60
010100
ENDCHAR
STARTCHAR atilde
ENCODING 227
SWIDTH 435 0
DWIDTH 4 0
BBX 6 6 -1 -1
BITMAP
028830
007500
083A01
0B1924
1D7A60
010100
ENDCHAR
STARTCHAR adieresis
ENCODING 228
SWIDTH 435 0
DWIDTH 4 0
BBX 6 6 -1 -1
BITMAP
007440
007500
083A01
0B1924
1D7A60
010100
ENDCHAR
STARTCHAR aring
ENCODING 229
SWIDTH 435 0
DWIDTH 4 0
BBX 6 6 -1 -1
BITMAP
006600
007500
083A01
0B1924
1D7A60
010100
ENDCHAR
STARTCHAR ae
ENCODING 230
SWIDTH 594 0
DWIDTH 5 0
BBX 7 5 -1 -1
BITMAP
00767500
083D6500
0B1D5060
1D8B6710
01012000
ENDCHAR
STARTCHAR ccedilla
ENCODING 231
SWIDTH 363 0
DWIDTH 3 0
BBX 5 6 -1 -2
BITMAP
018400
0A5510
1A0160
0B5700
058000
029000
ENDCHAR
STARTCHAR egrave
ENCODING 232
SWIDTH 372 0
DWIDTH 3 0
BBX 4 7 0 -1
BITMAP
0100
0850
0750
8650
D506
B671
1200
ENDCHAR
STARTCHAR eacute
ENCODING 233
SWIDTH 372 0
DWIDTH 3 0
BBX 4 6 0 -1
BITMAP
0670
0750
8650
D506
B671
1200
ENDCHAR
STARTCHAR ecircumflex
ENCODING 234
SWIDTH 372 0
DWIDTH 3 0
BBX 4 7 0 -1
BITMAP
0010
1790
0750
8650
D506
B671
1200
ENDCHAR
STARTCHAR edieresis
ENCODING 235
SWIDTH 372 0
DWIDTH 3 0
BBX 4 6 0 -1
BITMAP
1671
0750
8650
D506
B671
1200
ENDCHAR
STARTCHAR igrave
ENCODING 236
SWIDTH 274 0
DWIDTH 2 0
BBX 3 6 0 0
BITMAP
1000
7600
2300
9300
A070
9810
ENDCHAR
STARTCHAR iacute
ENCODING 237
SWIDTH 274 0
DWIDTH 2 0
BBX 3 5 0 0
BITMAP
0750
2300
9300
A070
9810
ENDCHAR
STARTCHAR icircumflex
ENCODING 238
SWIDTH 274 0
DWIDTH 2 0
BBX 3 6 0 0
BITMAP
0200
5830
2300
9300
A070
9810
ENDCHAR
STARTCHAR idieresis
ENCODING 239
SWIDTH 274 0
DWIDTH 2 0
BBX 3 5 0 0
BITMAP
7440
2300
9300
A070
9810
ENDCHAR
STARTCHAR eth
ENCODING 240
SWIDTH 393 0
DWIDTH 4 0
BBX 5 7 0 -1
BITMAP
005100
08C500
28A000
B3B420
B9B200
A93000
110000
ENDCHAR
STARTCHAR ntilde
ENCODING 241
SWIDTH 461 0
DWIDTH 4 0
BBX 6 6 -1 -1
BITMAP
018840
023600
089B11
0A0B16
1A1C70
000200
ENDCHAR
STARTCHAR ograve
ENCODING 242
SWIDTH 393 0
DWIDTH 4 0
BBX 5 7 0 -1
BITMAP
010000
085000
272000
B39420
B9B200
A93000
110000
ENDCHAR
STARTCHAR oacute
ENCODING 243
SWIDTH 393 0
DWIDTH 4 0
BBX 5 6 0 -1
BITMAP
067000
282000
B39420
B9B200
A93000
110000
ENDCHAR
STARTCHAR ocircumflex
ENCODING 244
SWIDTH 393 0
DWIDTH 4 0
BBX 5 7 0 -1
BITMAP
011000
277000
272000
B39420
B9B200
A93000
110000
ENDCHAR
STARTCHAR otilde
ENCODING 245
SWIDTH 393 0
DWIDTH 4 0
BBX 5 6 0 -1
BITMAP
588100
272000
B39420
B9B200
A93000
110000
ENDCHAR
STARTCHAR odieresis
ENCODING 246
SWIDTH 393 0
DWIDTH 4 0
BBX 5 6 0 -1
BITMAP
267000
272000
B39420
B9B200
A93000
110000
ENDCHAR
STARTCHAR divide
ENCODING 247
SWIDTH 350 0
DWIDTH 3 0
BBX 3 4 0 1
BITMAP
0520
7980
2500
0200
ENDCHAR
STARTCHAR oslash
ENCODING 248
SWIDTH 406 0
DWIDTH 4 0
BBX 6 5 -1 -1
BITMAP
017910
094943
0A9C30
0B8400
351000
ENDCHAR
STARTCHAR ugrave
ENCODING 249
SWIDTH 468 0
DWIDTH 4 0
BBX 5 7 0 -1
BITMAP
010000
076000
223100
A1B210
B0B060
C8B700
110000
ENDCHAR
STARTCHAR uacute
ENCODING 250
SWIDTH 468 0
DWIDTH 4 0
BBX 5 6 0 -1
BITMAP
049000
223100
A1B210
B0B060
C8B700
110000
ENDCHAR
STARTCHAR ucircumflex
ENCODING 251
SWIDTH 468 0
DWIDTH 4 0
BBX 5 7 0 -1
BITMAP
002000
069100
223100
A1B210
B0B060
C8B700
110000
ENDCHAR
STARTCHAR udieresis
ENCODING 252
SWIDTH 468 0
DWIDTH 4 0
BBX 5 6 0 -1
BITMAP
074300
223100
A1B210
B0B060
C8B700
110000
ENDCHAR
STARTCHAR yacute
ENCODING 253
SWIDTH 406 0
DWIDTH 4 0
BBX 5 9 -1 -4
BITMAP
002A10
041410
0B1A20
1A1B00
1CA800
025500
009200
00B000
008000
ENDCHAR
STARTCHAR thorn
ENCODING 254
SWIDTH 451 0
DWIDTH 4 0
BBX 6 11 -1 -4
BITMAP
001000
00C100
00B000
048600
079920
090A25
0EDB60
373100
740000
B10000
900000
ENDCHAR
STARTCHAR ydieresis
ENCODING 255
SWIDTH 406 0
DWIDTH 4 0
BBX 5 9 -1 -4
BITMAP
016710
041410
0B1A20
1A1B00
1CA800
025500
009200
00B000
008000
ENDCHAR
STARTCHAR dotlessi
ENCODING 305
SWIDTH 274 0
DWIDTH 2 0
BBX 3 4 0 0
BITMAP
2300
9300
A070
9810
ENDCHAR
STARTCHAR Lslash
ENCODING 321
SWIDTH 492 0
DWIDTH 4 0
BBX 6 9 -1 -2
BITMAP
000066
00059B
000AA4
059D40
002B20
05C820
00A100
9DB220
433A90
ENDCHAR
STARTCHAR lslash
ENCODING 322
SWIDTH 218 0
DWIDTH 2 0
BBX 4 8 -1 -1
BITMAP
0020
00D0
02B0
29C4
3A30
0B00
1A00
0100
ENDCHAR
STARTCHAR OE
ENCODING 338
SWIDTH 918 0
DWIDTH 8 0
BBX 9 9 0 -2
BITMAP
0088127710
0874AB1550
2B02F50B20
7502F50100
A204CC7000
D007A00000
C00D400400
B16C917200
2860793000
ENDCHAR
STARTCHAR oe
ENCODING 339
SWIDTH 583 0
DWIDTH 5 0
BBX 6 5 0 -1
BITMAP
272750
B3D650
A9D506
A9C671
111200
ENDCHAR
STARTCHAR Scaron
ENCODING 352
SWIDTH 474 0
DWIDTH 4 0
BBX 6 11 -1 -2
BITMAP
000111
0001A6
002881
01B156
048084
01D100
005C00
000B20
260820
5A1900
099200
ENDCHAR
STARTCHAR scaron
ENCODING 353
SWIDTH 351 0
DWIDTH 3 0
BBX 3 8 0 -1
BITMAP
0110
0960
0000
1C00
5B00
3650
A740
1200
ENDCHAR
STARTCHAR Ydieresis
ENCODING 376
SWIDTH 532 0
DWIDTH 5 0
BBX 6 10 0 -2
BITMAP
005460
052071
0D01D0
490480
750850
A21E10
979A00
143800
73A200
793000
ENDCHAR
STARTCHAR Zcaron
ENCODING 381
SWIDTH 455 0
DWIDTH 4 0
BBX 6 11 -1 -2
BITMAP
000101
000493
017883
025385
0001C1
000B40
008600
059000
1B0000
887720
566710
ENDCHAR
STARTCHAR zcaron
ENCODING 382
SWIDTH 349 0
DWIDTH 3 0
BBX 6 10 -2 -4
BITMAP
000110
000970
006840
004640
002A04
008981
007B20
082A00
187500
1B8000
ENDCHAR
STARTCHAR circumflex
ENCODING 710
SWIDTH 567 0
DWIDTH 5 0
BBX 3 2 2 5
BITMAP
0200
6910
ENDCHAR
STARTCHAR caron
ENCODING 711
SWIDTH 567 0
DWIDTH 5 0
BBX 2 2 2 5
BITMAP
11
97
ENDCHAR
STARTCHAR breve
ENCODING 728
SWIDTH 567 0
DWIDTH 5 0
BBX 3 2 2 4
BITMAP
A910
1100
ENDCHAR
STARTCHAR dotaccent
ENCODING 729
SWIDTH 567 0
DWIDTH 5 0
BBX 2 1 2 5
BITMAP
34
ENDCHAR
STARTCHAR ring
ENCODING 730
SWIDTH 567 0
DWIDTH 5 0
BBX 2 1 2 5
BITMAP
67
ENDCHAR
STARTCHAR ogonek
ENCODING 731
SWIDTH 567 0
DWIDTH 5 0
BBX 3 2 2 -1
BITMAP
3000
B610
ENDCHAR
STARTCHAR tilde
ENCODING 732
SWIDTH 567 0
DWIDTH 5 0
BBX 4 1 1 5
BITMAP
2883
ENDCHAR
STARTCHAR hungarumlaut
ENCODING 733
SWIDTH 567 0
DWIDTH 5 0
BBX 4 1 1 5
BITMAP
2A85
ENDCHAR
STARTCHAR endash
ENCODING 8211
SWIDTH 353 0
DWIDTH 3 0
BBX 4 2 -1 2
BITMAP
0122
1877
ENDCHAR
STARTCHAR emdash
ENCODING 8212
SWIDTH 508 0
DWIDTH 5 0
BBX 6 2 -1 2
BITMAP
012320
188783
ENDCHAR
STARTCHAR quoteleft
ENCODING 8216
SWIDTH 155 0
DWIDTH 1 0
BBX 2 2 0 4
BITMAP
53
74
ENDCHAR
STARTCHAR quoteright
ENCODING 8217
SWIDTH 154 0
DWIDTH 1 0
BBX 2 2 0 4
BITMAP
58
33
ENDCHAR
STARTCHAR quotesinglbase
ENCODING 8218
SWIDTH 188 0
DWIDTH 2 0
BBX 2 2 -1 -1
BITMAP
39
16
ENDCHAR
STARTCHAR quotedblleft
ENCODING 8220
SWIDTH 289 0
DWIDTH 3 0
BBX 3 2 0 4
BITMAP
5560
7870
ENDCHAR
STARTCHAR quotedblright
ENCODING 8221
SWIDTH 288 0
DWIDTH 3 0
BBX 3 3 0 4
BITMAP
0110
5AB0
3340
ENDCHAR
STARTCHAR quotedblbase
ENCODING 8222
SWIDTH 323 0
DWIDTH 3 0
BBX 3 2 -1 -1
BITMAP
3AB0
1670
ENDCHAR
STARTCHAR bullet
ENCODING 8226
SWIDTH 180 0
DWIDTH 2 0
BBX 3 3 -1 1
BITMAP
0520
1F50
0600
ENDCHAR
STARTCHAR ellipsis
ENCODING 8230
SWIDTH 614 0
DWIDTH 6 0
BBX 6 2 -1 -1
BITMAP
183654
021120
ENDCHAR
STARTCHAR perthousand
ENCODING 8240
SWIDTH 851 0
DWIDTH 8 0
BBX 8 8 0 -1
BITMAP
06205100
63837000
82890000
37820000
04797692
19729954
92685A90
10010100
ENDCHAR
STARTCHAR guilsinglleft
ENCODING 8249
SWIDTH 202 0
DWIDTH 2 0
BBX 3 5 -1 -1
BITMAP
0030
0820
3800
0800
0100
ENDCHAR
STARTCHAR guilsinglright
ENCODING 8250
SWIDTH 202 0
DWIDTH 2 0
BBX 3 5 -1 -1
BITMAP
0300
0810
0740
3600
1000
ENDCHAR
STARTCHAR fraction
ENCODING 8260
SWIDTH 600 0
DWIDTH 5 0
BBX 6 8 0 -1
BITMAP
000033
000190
000810
005400
018000
091000
650000
100000
ENDCHAR
STARTCHAR Euro
ENCODING 8364
SWIDTH 334 0
DWIDTH 3 0
BBX 5 6 -1 0
BITMAP
005730
038010
1C8400
2C6100
071400
015000
ENDCHAR
STARTCHAR minus
ENCODING 8722
SWIDTH 353 0
DWIDTH 3 0
BBX 4 2 -1 2
BITMAP
0122
1877
ENDCHAR
STARTCHAR fi
ENCODING 64257
SWIDTH 549 0
DWIDTH 5 0
BBX 7 12 -1 -5
BITMAP
00310000
00B23500
00B01100
01905000
0596A010
0D246340
0C64A600
37911000
73820000
A1A00000
CC300000
21000000
ENDCHAR
STARTCHAR fl
ENCODING 64258
SWIDTH 516 0
DWIDTH 5 0
BBX 6 12 -1 -5
BITMAP
003101
00B249
00B066
0190A2
0595C0
0D2290
0C6550
379200
738200
A1A000
CC3000
210000
ENDCHAR
STARTCHAR .notdef
ENCODING -1
SWIDTH 280 0
DWIDTH 3 0
BBX 1 1 0 0
BITMAP
00
ENDCHAR
ENDFONT
